HIERARCHY
ROOT Hips
{
	OFFSET 0.00000 0.00000 0.00000
	CHANNELS 6 Xposition Yposition Zposition Zrotation Yrotation Xrotation 
	JOINT LHipJoint
	{
		OFFSET 0 0 0
		CHANNELS 3 Zrotation Yrotation Xrotation
		JOINT LeftHip
		{
			OFFSET 1.30186 -1.90722 0.65024
			CHANNELS 3 Zrotation Yrotation Xrotation
			JOINT LeftKnee
			{
				OFFSET 2.56413 -7.04489 0.00000
				CHANNELS 3 Zrotation Yrotation Xrotation
				JOINT LeftAnkle
				{
					OFFSET 2.79321 -7.67428 0.00000
					CHANNELS 3 Zrotation Yrotation Xrotation
					JOINT LeftToe
					{
						OFFSET 0.15723 -0.43198 2.08537
						CHANNELS 3 Zrotation Yrotation Xrotation
						End Site
						{
							OFFSET 0.00000 -0.00000 1.07411
						}
					}
				}
			}
		}
	}
	JOINT RHipJoint
	{
		OFFSET 0 0 0
		CHANNELS 3 Zrotation Yrotation Xrotation
		JOINT RightHip
		{
			OFFSET -1.28627 -1.90723 0.65024
			CHANNELS 3 Zrotation Yrotation Xrotation
			JOINT RightKnee
			{
				OFFSET -2.56567 -7.04913 0.00000
				CHANNELS 3 Zrotation Yrotation Xrotation
				JOINT RightAnkle
				{
					OFFSET -2.75597 -7.57198 0.00000
					CHANNELS 3 Zrotation Yrotation Xrotation
					JOINT RightToe
					{
						OFFSET -0.17500 -0.48081 2.22901
						CHANNELS 3 Zrotation Yrotation Xrotation
						End Site
						{
							OFFSET -0.00000 -0.00000 1.14762
						}
					}
				}
			}
		}
	}
	JOINT lowerback
	{
		OFFSET 0 0 0
		CHANNELS 3 Zrotation Yrotation Xrotation
		JOINT Chest
		{
			OFFSET -0.04522 2.07467 -0.16566
			CHANNELS 3 Zrotation Yrotation Xrotation
			JOINT Chest2
			{
				OFFSET -0.01178 2.08825 -0.05393
				CHANNELS 3 Zrotation Yrotation Xrotation
				JOINT lowerneck
				{
					OFFSET 0 0 0
					CHANNELS 3 Zrotation Yrotation Xrotation
					JOINT Neck
					{
						OFFSET -0.05182 1.80489 0.16014
						CHANNELS 3 Zrotation Yrotation Xrotation
						JOINT Head
						{
							OFFSET 0.14739 1.78840 -0.33342
							CHANNELS 3 Zrotation Yrotation Xrotation
							End Site
							{
								OFFSET 0.04364 1.83899 -0.13460
							}
						}
					}
				}
				JOINT LeftCollar
				{
					OFFSET 0 0 0
					CHANNELS 3 Zrotation Yrotation Xrotation
					JOINT LeftShoulder
					{
						OFFSET 3.01264 1.29090 -0.06579
CHANNELS 3 Zrotation Xrotation Yrotation
						JOINT LeftElbow
						{
OFFSET 0 -5.556800 0.000000
CHANNELS 3 Zrotation Xrotation Yrotation
							JOINT LeftWrist
							{
OFFSET 0 -3.639790 -0.000000
CHANNELS 3 Zrotation Xrotation Yrotation
								JOINT lhand
								{
									OFFSET 0 0 0
CHANNELS 3 Zrotation Xrotation Yrotation
									JOINT LFingers
									{
OFFSET 0 -0.569420 -0.000000
CHANNELS 3 Zrotation Xrotation Yrotation
										End Site
										{
OFFSET 0 -0.459080 -0.000000
										}
									}
								}
								JOINT LThumb
								{
OFFSET 0 0.000000 0.000000
CHANNELS 3 Zrotation Xrotation Yrotation
									End Site
									{
OFFSET 0 -0.466090 0.466090
									}
								}
							}
						}
					}
				}
				JOINT RightCollar
				{
					OFFSET 0 0 0
					CHANNELS 3 Zrotation Yrotation Xrotation
					JOINT RightShoulder
					{
						OFFSET -3.15796 1.37283 -0.36748
CHANNELS 3 Zrotation Xrotation Yrotation
						JOINT RightElbow
						{
OFFSET 0 -5.343390 0.000000
CHANNELS 3 Zrotation Xrotation Yrotation
							JOINT RightWrist
							{
OFFSET 0 -3.651010 -0.000000
CHANNELS 3 Zrotation Xrotation Yrotation
								JOINT rhand
								{
									OFFSET 0 0 0
CHANNELS 3 Zrotation Xrotation Yrotation
									JOINT RFingers
									{
OFFSET 0 -0.694250 -0.000000
CHANNELS 3 Zrotation Xrotation Yrotation
										End Site
										{
OFFSET 0 -0.559720 -0.000000
										}
									}
								}
								JOINT RThumb
								{
OFFSET 0 0.000000 0.000000
CHANNELS 3 Zrotation Xrotation Yrotation
									End Site
									{
OFFSET 0 -0.568270 0.568270
									}
								}
							}
						}
					}
				}
			}
		}
	}
}
MOTION
Frames: 6
Frame Time: 0.008333333333333333
8.967400 18.661700 9.705200 179.978000 3.182100 -175.913000 0.000000 0.000000 0.000000 -15.136600 -5.842100 -5.752700 1.419400 7.534300 21.308300 0.782700 1.655900 -17.390100 0.641100 -5.122500 -14.258200 0.000000 0.000000 0.000000 16.285600 12.864100 -2.987500 -1.387100 -7.451700 21.060800 -0.000000 -0.000000 0.000000 -0.000000 -0.000000 0.000000 -2.158000 1.410200 0.675300 -0.306800 1.890700 0.879800 0.888600 0.940800 0.463400 -3.559600 -3.030700 -11.539200 2.546500 -3.994900 12.945500 1.039900 -1.974200 5.937400 0.000000 -0.000000 0.000000 9.715500 3.516300 -22.759000 38.233300 -46.987700 17.136000 10.705600 -12.402600 -27.963800 0.000000 0.000000 0.000000 -7.125000 0.000000 0.000000 -21.674800 57.017600 6.593500 0.000000 -0.000000 0.000000 -10.250500 3.568600 23.339700 -23.235200 -34.345000 -7.270500 1.023500 2.479400 -34.703700 0.000000 0.000000 0.000000 7.125000 0.000000 -0.000000 18.352000 -3.206200 20.401500
8.957675 18.658859 9.728103 180.330803 3.005619 -175.971584 0.000000 0.000000 0.000000 -14.758873 -6.039584 -5.874990 1.447393 7.605198 21.521179 0.762178 1.778764 -17.227631 0.718894 -5.418112 -15.105012 0.000000 0.000000 0.000000 16.652800 12.961506 -2.996187 -1.404941 -7.497431 21.197693 -0.040129 -1.134252 -2.273286 -0.009662 -0.240355 0.661267 -1.862573 1.282344 0.724395 -0.093315 1.719249 0.972317 0.942798 0.854410 0.537865 -3.667265 -2.957808 -11.767981 2.516965 -3.876540 13.225992 1.053723 -1.924626 6.062797 0.000000 0.000000 0.000000 12.040294 1.411662 -22.972407 38.876632 -47.390006 17.608018 8.984394 -12.506578 -29.082264 0.000000 0.000000 0.000000 -7.125000 0.000000 0.000000 -24.213994 57.681036 7.818821 0.000000 0.000000 0.000000 -13.589819 2.388250 24.679169 -24.731166 -35.926948 -8.132049 3.558695 3.274261 -34.032754 0.000000 0.000000 0.000000 7.125000 0.000000 0.000000 19.678147 -2.405349 21.792477
8.953391 18.669238 9.723736 180.242264 2.873077 -175.979970 0.000000 0.000000 0.000000 -14.883109 -6.044298 -5.653534 1.402129 7.490221 21.176176 0.755351 1.846740 -17.186335 0.766944 -5.588803 -15.596896 0.000000 0.000000 0.000000 16.525966 12.867855 -3.103482 -1.447658 -7.605831 21.523149 -0.305781 -7.553350 -15.833855 -0.067104 -1.670739 4.596521 -1.896136 1.184876 0.512996 -0.191816 1.593080 0.921580 0.865495 0.790834 0.610011 -3.570046 -2.893725 -11.566739 2.636052 -3.854505 13.422625 1.078743 -1.908586 6.090170 0.000000 0.000000 0.000000 15.143181 -0.532198 -23.213768 39.745293 -47.917332 18.250235 6.342094 -14.004022 -25.241251 0.000000 0.000000 0.000000 -7.125000 0.000000 0.000000 -24.204939 53.676706 5.410452 0.000000 0.000000 0.000000 -16.795041 1.135786 25.390235 -26.223852 -37.426276 -9.024355 6.845211 4.595828 -34.111456 0.000000 0.000000 0.000000 7.125000 0.000000 0.000000 21.377760 -2.332028 23.934098
8.947864 18.676242 9.723320 180.132382 2.900757 -176.110364 0.000000 0.000000 0.000000 -15.082090 -5.971046 -5.319038 1.358956 7.378816 20.842635 0.754018 1.953678 -17.222982 0.698954 -5.331458 -14.859366 0.000000 0.000000 0.000000 16.451446 12.724405 -2.999769 -1.454317 -7.622377 21.572959 -0.272053 -7.833299 -15.664108 -0.018696 -0.838349 2.304406 -1.991093 1.085908 0.573090 -0.272906 1.456013 0.758379 0.832521 0.724153 0.413018 -3.512774 -2.663834 -11.306616 2.677761 -3.607066 13.813243 1.105370 -1.796979 6.160766 0.000000 0.000000 0.000000 18.353907 -2.061546 -23.052265 41.132566 -48.725627 19.286502 7.441082 -13.098312 -25.923451 0.000000 0.000000 0.000000 -7.125000 0.000000 0.000000 -23.568548 54.499507 5.740822 0.000000 0.000000 0.000000 -20.261294 -0.013076 25.903879 -27.781642 -38.912917 -9.986783 5.194071 3.558072 -33.696081 0.000000 0.000000 0.000000 7.125000 0.000000 0.000000 20.534224 -2.007169 22.734890
8.940848 18.673845 9.727819 180.263160 2.874155 -176.149277 0.000000 0.000000 0.000000 -14.897009 -5.809437 -5.350290 1.360053 7.381754 20.851389 0.731508 1.811186 -16.910417 0.727380 -5.445020 -15.183420 0.000000 0.000000 0.000000 16.634953 12.557982 -2.440936 -1.346891 -7.346819 20.747320 -0.253796 -7.968453 -15.554875 -0.008410 -0.589977 1.621327 -2.046084 0.919800 0.454432 -0.078458 1.234223 0.759793 1.065253 0.610738 0.481833 -3.746297 -2.764747 -11.956068 2.659312 -3.308338 14.763010 1.171968 -1.505668 6.571906 0.000000 0.000000 0.000000 21.379385 -4.063535 -22.259121 42.496592 -49.480616 20.317503 8.284333 -12.361230 -25.933424 0.000000 0.000000 0.000000 -7.125000 0.000000 0.000000 -22.755022 54.667025 5.621184 0.000000 0.000000 0.000000 -24.348625 -1.500929 26.213787 -29.664612 -40.600174 -11.192173 5.735555 3.358296 -33.970181 0.000000 0.000000 0.000000 7.125000 0.000000 0.000000 20.809580 -2.240244 23.168760
8.931408 18.688017 9.731608 180.179289 2.740358 -176.020267 0.000000 0.000000 0.000000 -15.025221 -6.138709 -5.285652 1.334187 7.313927 20.648770 0.728703 2.012042 -16.974955 0.735354 -5.477379 -15.275583 0.000000 0.000000 0.000000 16.395161 12.099547 -2.311948 -1.204415 -6.962181 19.603665 -0.219573 -7.830621 -14.925454 -0.013028 -0.734698 2.019110 -2.149656 0.844080 0.243630 -0.160922 1.132492 0.502697 1.039832 0.561690 0.339853 -3.560472 -2.741719 -11.577091 2.707502 -3.310615 14.987273 1.161858 -1.483860 6.575423 0.000000 0.000000 0.000000 25.076439 -5.699187 -21.483176 44.165970 -50.351145 21.595229 10.071204 -10.837833 -26.762713 0.000000 0.000000 0.000000 -7.125000 0.000000 0.000000 -21.518649 55.777252 5.884924 0.000000 0.000000 0.000000 -27.951726 -2.590911 25.615738 -31.670147 -42.279675 -12.519359 4.267235 2.161993 -33.821969 0.000000 0.000000 0.000000 7.125000 0.000000 0.000000 20.048681 -2.169431 22.179802
